<?xml version="1.0" encoding="iso-8859-1"?>
<!-- Generator: Adobe Illustrator 19.2.1, SVG Export Plug-In . SVG Version: 6.00 Build 0)  -->
<svg version="1.1"  xmlns="http://www.w3.org/2000/svg" xmlns:xlink="http://www.w3.org/1999/xlink" x="0px" y="0px"
	 viewBox="0 0 40 40" style="enable-background:new 0 0 40 40;" xml:space="preserve">
<g>
	<path style="fill:#E1EBF2;" d="M22.159,38.5c1.415-0.996,2.341-2.642,2.341-4.5V5.5h13V34c0,2.481-2.019,4.5-4.5,4.5H22.159z"/>
	<g>
		<path style="fill:#788B9C;" d="M37,6v28c0,2.206-1.794,4-4,4h-9.532C24.42,36.938,25,35.535,25,34V6H37 M38,5H24v29
			c0,2.761-2.239,5-5,5h14c2.761,0,5-2.239,5-5V5L38,5z"/>
	</g>
</g>
<g>
	<path style="fill:#FFFFFF;" d="M7,38.5c-2.481,0-4.5-2.019-4.5-4.5V1.5h26V34c0,2.312,1.753,4.223,4,4.472V38.5H7z"/>
	<path style="fill:#788B9C;" d="M28,2v32c0,1.634,0.788,3.087,2.003,4H7c-2.206,0-4-1.794-4-4V2H28 M29,1H2v33c0,2.761,2.239,5,5,5
		h26v-1c-2.209,0-4-1.791-4-4V1L29,1z"/>
</g>
<rect x="7" y="6" style="fill:#788B9C;" width="17" height="3"/>
<rect x="7" y="12" style="fill:#788B9C;" width="7" height="1"/>
<rect x="7" y="15" style="fill:#788B9C;" width="7" height="1"/>
<rect x="7" y="18" style="fill:#788B9C;" width="7" height="1"/>
<rect x="7" y="21" style="fill:#788B9C;" width="7" height="1"/>
<rect x="7" y="24" style="fill:#788B9C;" width="7" height="1"/>
<rect x="7" y="27" style="fill:#788B9C;" width="7" height="1"/>
<rect x="7" y="30" style="fill:#788B9C;" width="7" height="1"/>
<rect x="7" y="33" style="fill:#788B9C;" width="7" height="1"/>
<rect x="29" y="11" style="fill:#788B9C;" width="5" height="1"/>
<rect x="29" y="14" style="fill:#788B9C;" width="5" height="1"/>
<rect x="29" y="17" style="fill:#788B9C;" width="5" height="1"/>
<rect x="29" y="20" style="fill:#788B9C;" width="5" height="1"/>
<rect x="29" y="23" style="fill:#788B9C;" width="5" height="1"/>
<rect x="29" y="26" style="fill:#788B9C;" width="5" height="1"/>
<rect x="29" y="29" style="fill:#788B9C;" width="5" height="1"/>
<rect x="29" y="32" style="fill:#788B9C;" width="5" height="1"/>
<rect x="17" y="12" style="fill:#788B9C;" width="7" height="1"/>
<rect x="17" y="15" style="fill:#788B9C;" width="7" height="1"/>
<rect x="17" y="18" style="fill:#788B9C;" width="7" height="1"/>
<rect x="17" y="21" style="fill:#788B9C;" width="7" height="1"/>
<rect x="17" y="24" style="fill:#788B9C;" width="7" height="1"/>
<rect x="17" y="27" style="fill:#788B9C;" width="7" height="1"/>
<rect x="17" y="30" style="fill:#788B9C;" width="7" height="1"/>
<rect x="17" y="33" style="fill:#788B9C;" width="7" height="1"/>
</svg>